<?xml version="1.0" standalone="no"?>
<!DOCTYPE svg PUBLIC "-//W3C//DTD SVG 20010904//EN"
 "http://www.w3.org/TR/2001/REC-SVG-20010904/DTD/svg10.dtd">
<svg version="1.0" xmlns="http://www.w3.org/2000/svg"
 width="401.000000pt" height="254.000000pt" viewBox="0 0 401.000000 254.000000"
 preserveAspectRatio="xMidYMid meet">
<metadata>
Created by potrace 1.13, written by Peter Selinger 2001-2015
</metadata>
<g transform="translate(0.000000,254.000000) scale(0.100000,-0.100000)"
fill="#000000" stroke="none">
<path d="M1482 2514 c-29 -7 -75 -23 -102 -35 l-50 -21 50 -55 c28 -30 50 -58
50 -61 0 -4 4 -13 9 -20 7 -11 14 -11 44 1 26 11 68 15 154 14 113 -2 121 -3
193 -38 41 -20 98 -57 126 -82 l52 -47 96 0 96 0 -26 53 c-15 29 -61 86 -103
128 -83 83 -176 136 -286 164 -74 19 -232 19 -303 -1z"/>
<path d="M2952 1918 l3 -83 83 -3 82 -3 0 86 0 85 -85 0 -86 0 3 -82z"/>
<path d="M702 1886 c-35 -31 -87 -89 -104 -116 -86 -142 -75 -350 25 -487 52
-69 114 -120 132 -107 7 5 49 33 94 63 l81 54 -41 44 c-54 59 -71 102 -78 203
l-7 85 -12 -40 c-33 -106 -23 -219 26 -277 21 -25 22 -29 7 -20 -98 53 -150
216 -106 332 21 57 87 140 110 140 8 0 -2 13 -22 28 -37 30 -81 79 -88 98 -3
9 -7 9 -17 0z"/>
<path d="M3147 1813 c-4 -3 -7 -71 -7 -150 l0 -143 150 0 150 0 0 150 0 150
-143 0 c-79 0 -147 -3 -150 -7z"/>
<path d="M2380 1585 l0 -85 85 0 86 0 -3 83 -3 82 -82 3 -83 3 0 -86z"/>
<path d="M2902 1423 l3 -88 85 0 85 0 3 88 3 87 -91 0 -91 0 3 -87z"/>
<path d="M1251 1375 c-99 -22 -158 -44 -256 -93 -89 -46 -218 -137 -263 -185
-21 -22 -11 -19 91 24 209 90 419 128 605 109 112 -12 160 -25 387 -104 301
-105 535 -154 772 -163 254 -10 466 25 608 100 68 36 179 142 213 204 21 40
20 39 -45 -26 -132 -132 -349 -211 -578 -211 -198 0 -303 26 -680 167 -268
101 -446 161 -528 178 -84 18 -241 18 -326 0z"/>
<path d="M1890 425 l0 -285 45 0 45 0 0 285 0 285 -45 0 -45 0 0 -285z"/>
<path d="M60 420 l0 -282 143 4 c158 5 198 16 256 71 110 104 110 310 0 414
-58 55 -98 66 -256 71 l-143 4 0 -282z m291 177 c68 -46 99 -126 85 -221 -8
-54 -40 -102 -85 -133 -28 -19 -47 -23 -112 -23 l-79 0 0 200 0 200 79 0 c65
0 84 -4 112 -23z"/>
<path d="M2188 685 c-62 -23 -106 -63 -138 -128 -26 -51 -30 -71 -30 -137 0
-171 106 -280 273 -280 82 0 130 17 183 63 72 63 89 105 89 217 0 79 -4 102
-22 136 -29 54 -101 117 -151 132 -52 16 -158 14 -204 -3z m157 -76 c92 -26
141 -130 115 -246 -36 -164 -243 -192 -317 -43 -41 79 -24 201 35 253 21 19
85 46 112 47 8 0 33 -5 55 -11z"/>
<path d="M1299 589 c-11 -54 -15 -61 -40 -66 -24 -4 -29 -11 -29 -34 0 -24 4
-29 25 -29 l25 0 0 -115 c0 -169 20 -205 114 -205 43 0 96 16 96 29 -2 23 -35
46 -68 46 l-37 0 -3 123 -3 122 51 0 50 0 0 35 0 35 -50 0 -50 0 0 60 0 60
-34 0 c-35 0 -35 0 -47 -61z"/>
<path d="M590 335 l0 -195 45 0 45 0 0 195 0 195 -45 0 -45 0 0 -195z"/>
<path d="M783 511 c-36 -23 -63 -68 -63 -106 0 -35 26 -94 45 -101 12 -5 11
-11 -10 -36 -29 -34 -31 -46 -10 -75 14 -20 13 -24 -15 -51 -39 -39 -38 -66 4
-108 l34 -34 99 0 c79 0 104 4 130 20 47 28 65 61 61 111 -4 61 -33 79 -142
88 -86 7 -120 21 -99 42 6 6 36 12 66 13 91 4 153 64 142 138 -4 32 -2 37 17
40 16 2 24 11 26 30 3 25 1 26 -55 32 -196 18 -197 18 -230 -3z m181 -374 c24
-18 14 -50 -20 -65 -30 -15 -109 -16 -133 -2 -25 13 -33 37 -21 61 9 16 22 19
83 19 45 0 80 -5 91 -13z"/>
<path d="M1110 335 l0 -195 45 0 45 0 0 195 0 195 -45 0 -45 0 0 -195z"/>
<path d="M1585 516 c-16 -8 -38 -20 -48 -28 -18 -13 -18 -15 1 -38 20 -24 20
-25 56 -7 73 34 136 17 136 -36 l0 -33 -73 -12 c-132 -22 -186 -88 -142 -172
20 -39 43 -50 103 -50 36 0 59 7 86 25 45 30 44 30 48 3 2 -19 10 -24 41 -26
l37 -3 0 118 c-1 161 -10 200 -54 240 -33 30 -41 33 -98 33 -35 -1 -76 -7 -93
-14z"/>
<path d="M2684 516 c-127 -56 -130 -296 -4 -361 42 -22 133 -19 180 5 51 26
57 38 31 63 -20 21 -22 21 -50 4 -33 -19 -83 -22 -113 -6 -25 13 -48 68 -48
114 0 46 23 101 48 114 27 14 68 14 108 -1 29 -10 36 -9 54 7 23 21 15 37 -31
61 -35 18 -134 18 -175 0z"/>
<path d="M3002 513 c-129 -63 -128 -289 1 -354 54 -28 172 -24 213 7 34 25 37
34 19 59 -14 17 -18 18 -48 6 -17 -8 -53 -16 -78 -18 -38 -4 -51 -1 -72 19
-15 12 -30 37 -33 55 l-6 32 128 3 129 3 3 40 c4 54 -32 122 -78 146 -44 24
-133 25 -178 2z"/>
<path d="M3365 516 c-16 -8 -38 -20 -48 -28 -18 -13 -18 -15 1 -38 20 -24 20
-25 56 -7 73 34 136 17 136 -36 l0 -33 -73 -12 c-132 -22 -186 -88 -142 -172
20 -39 43 -50 103 -50 36 0 59 7 86 25 45 30 44 30 48 3 2 -19 10 -24 41 -26
l37 -3 0 118 c-1 161 -10 200 -54 240 -33 30 -41 33 -98 33 -35 -1 -76 -7 -93
-14z"/>
<path d="M3660 335 l0 -195 45 0 45 0 0 139 c0 139 0 140 26 160 31 24 82 27
110 7 17 -13 19 -29 22 -160 l3 -146 45 0 44 0 0 142 c0 158 -16 214 -66 236
-40 19 -113 15 -150 -8 l-33 -21 -11 21 c-8 14 -21 20 -45 20 l-35 0 0 -195z"/>
</g>
</svg>
